<?xml version="1.0" standalone="no"?>
<!DOCTYPE svg PUBLIC "-//W3C//DTD SVG 20010904//EN"
 "http://www.w3.org/TR/2001/REC-SVG-20010904/DTD/svg10.dtd">
<svg version="1.0" xmlns="http://www.w3.org/2000/svg"
 width="512.000000pt" height="512.000000pt" viewBox="0 0 512.000000 512.000000"
 preserveAspectRatio="xMidYMid meet">

<g transform="translate(0.000000,512.000000) scale(0.100000,-0.100000)"
fill="#000000" stroke="none">
<path d="M2382 4340 c-120 -32 -226 -93 -317 -185 -47 -47 -93 -104 -110 -137
l-30 -57 -425 -3 -425 -3 -38 -24 c-43 -26 -77 -85 -77 -132 0 -44 35 -113 68
-135 15 -10 45 -21 67 -24 l40 -5 153 -1375 c110 -992 157 -1386 169 -1413 9
-22 33 -50 52 -63 l36 -24 1015 0 1015 0 36 24 c19 13 43 41 52 63 12 27 59
421 169 1413 l153 1375 40 5 c22 3 52 14 67 24 33 22 68 91 68 135 0 47 -34
106 -77 132 l-38 24 -425 3 -425 3 -30 57 c-17 33 -63 90 -110 137 -93 93
-198 154 -321 185 -102 26 -252 26 -352 0z m348 -340 l64 -35 -117 -3 c-64 -1
-170 -1 -234 0 l-116 3 52 29 c77 41 97 46 196 43 81 -3 97 -6 155 -37z m930
-369 c0 -4 -63 -572 -140 -1260 -77 -689 -140 -1261 -140 -1272 0 -19 -16 -19
-818 -19 l-818 0 -138 1237 c-76 681 -140 1257 -143 1281 l-6 42 1102 0 c608
0 1101 -4 1101 -9z"/>
<path d="M2047 3306 c-72 -26 -107 -76 -107 -153 0 -26 32 -367 71 -758 76
-762 77 -766 136 -810 18 -13 48 -21 88 -23 50 -3 65 0 94 20 42 28 71 81 71
128 0 34 -133 1380 -146 1468 -8 59 -59 116 -119 131 -52 13 -41 13 -88 -3z"/>
<path d="M2993 3309 c-43 -12 -90 -62 -103 -107 -12 -44 -150 -1405 -150
-1483 0 -98 60 -159 156 -159 36 0 61 6 84 23 71 47 66 23 147 811 40 396 72
744 70 772 -7 104 -103 172 -204 143z"/>
</g>
</svg>
